# xmcd CD database file
#
# Track frame offsets:
#	150
#	28836
#	37930
#	60475
#	72868
#	85710
#	97823
#	113705
#	123716
#	137549
#	151881
#
# Disc length: 2206 seconds
#
# Revision: 0
# Processed by: cddbd v1.5.2PL0 Copyright (c) Steve Scherf et al.
# Submitted via: CDex 1.70beta2
#
DISCID=83089c0b
DTITLE=Samuel Katarro - Beach party
DYEAR=2008
DGENRE=Blues
TTITLE0=From Texarkana to Texarkana
TTITLE1=Terminally illness blues
TTITLE2=Com-passion
TTITLE3=Wicked child
TTITLE4=The Moonlight Murders Psychedelic Band
TTITLE5=There's a lady inside the cabine
TTITLE6=Dead man on a canoe
TTITLE7=Headache
TTITLE8=Live in terror
TTITLE9=This garlic cake
TTITLE10=Beach party
EXTD=YEAR: 2008
EXTT0=
EXTT1=
EXTT2=
EXTT3=
EXTT4=
EXTT5=
EXTT6=
EXTT7=
EXTT8=
EXTT9=
EXTT10=
PLAYORDER=
